<svg xmlns="http://www.w3.org/2000/svg" version="1.1" width="72" height="72" viewBox="0 0 128 128">
    <g transform="matrix(0.8046875,0,0,0.8046875,12.760752631578946,12.760570111659803)">
        <svg viewBox="0 0 95 95" data-background-color="#ffffff" preserveAspectRatio="xMidYMid meet" height="128"
             width="128">
            <g id="tight-bounds" transform="matrix(1,0,0,1,-0.24049999999999727,-0.24033165638525134)">
                <svg viewBox="0 0 95.481 95.48066331277049" height="95.48066331277049" width="95.481">
                    <g>
                        <svg viewBox="0 0 95.481 95.48066331277049" height="95.48066331277049" width="95.481">
                            <g>
                                <svg viewBox="0 0 95.481 95.48066331277049" height="95.48066331277049" width="95.481">
                                    <g id="textblocktransform">
                                        <svg viewBox="0 0 95.481 95.48066331277049" height="95.48066331277049"
                                             width="95.481" id="textblock">
                                            <g>
                                                <svg viewBox="0 0 95.481 95.48066331277049" height="95.48066331277049"
                                                     width="95.481">
                                                    <g>
                                                        <svg viewBox="0 0 95.481 95.48066331277049"
                                                             height="95.48066331277049" width="95.481">
                                                            <g>
                                                                <svg xmlns="http://www.w3.org/2000/svg"
                                                                     viewBox="7.7349477883531454 7.735245861841604 84.53054425048146 84.53024617699299"
                                                                     x="0" y="0" height="95.48066331277049"
                                                                     width="95.481" data-fill-palette-color="accent"
                                                                     id="icon-0">
                                                                    <path
                                                                            d="M28.368 14.767c13.794 1.56 19.672 10.995 21.322 15.928 1.07 3.198 1.472 5.094 1.472 9.275 0 0.817 0.044 2.076-1.054 2.216-0.77 0.099-1.209-0.509-1.273-1.182-0.289-3.026-1.159-6.569-4.008-9.85-2.253-2.594-7.472-7.802-16.652-7.021-2.669 0.228-5.052-1.868-5.129-4.564-0.082-2.866 2.485-5.123 5.322-4.802M71.633 85.232c-13.794-1.561-19.671-10.995-21.322-15.929-1.07-3.198-1.472-5.094-1.472-9.275 0-0.817-0.044-2.076 1.054-2.216 0.77-0.099 1.209 0.509 1.273 1.182 0.289 3.026 1.159 6.569 4.008 9.85 2.253 2.594 7.472 7.802 16.652 7.021 2.669-0.228 5.052 1.868 5.129 4.564 0.082 2.867-2.485 5.124-5.322 4.803M14.768 71.633c1.56-13.794 10.995-19.672 15.928-21.322 3.198-1.07 5.094-1.472 9.276-1.472 0.817 0 2.076-0.045 2.216 1.054 0.098 0.77-0.509 1.209-1.182 1.273-3.026 0.288-6.569 1.159-9.849 4.008-2.594 2.254-7.802 7.473-7.021 16.652 0.228 2.669-1.868 5.052-4.564 5.129-2.868 0.081-5.125-2.485-4.804-5.322M85.233 28.367c-1.56 13.794-10.995 19.672-15.928 21.322-3.198 1.07-5.094 1.472-9.276 1.472-0.817 0-2.076 0.045-2.216-1.054-0.098-0.77 0.509-1.209 1.182-1.273 3.026-0.288 6.569-1.159 9.849-4.008 2.594-2.254 7.802-7.473 7.021-16.652-0.228-2.669 1.868-5.052 4.564-5.129 2.868-0.081 5.125 2.485 4.804 5.322"
                                                                            fill="#5d5dff"
                                                                            data-fill-palette-color="accent"></path>
                                                                    <path
                                                                            d="M13.65 30.304c12.726-5.546 22.533-0.314 26.43 3.133 2.526 2.234 3.821 3.676 5.912 7.297 0.409 0.708 1.077 1.775 0.195 2.446-0.617 0.47-1.302 0.164-1.693-0.387-1.763-2.477-4.289-5.109-8.396-6.525-3.249-1.12-10.373-3.021-17.931 2.246-2.198 1.531-5.309 0.907-6.724-1.389-1.505-2.443-0.41-5.681 2.207-6.821M86.351 69.695c-12.726 5.546-22.533 0.314-26.43-3.133-2.526-2.234-3.821-3.676-5.912-7.297-0.409-0.708-1.077-1.775-0.196-2.446 0.618-0.47 1.302-0.164 1.694 0.387 1.763 2.477 4.289 5.109 8.396 6.525 3.249 1.12 10.373 3.021 17.931-2.245 2.198-1.532 5.309-0.908 6.724 1.388 1.505 2.443 0.41 5.681-2.207 6.821M30.304 86.351c-5.546-12.726-0.314-22.533 3.133-26.43 2.235-2.525 3.676-3.821 7.298-5.912 0.708-0.409 1.775-1.076 2.445-0.195 0.47 0.617 0.164 1.302-0.387 1.693-2.477 1.764-5.109 4.289-6.525 8.396-1.12 3.248-3.021 10.372 2.246 17.931 1.531 2.198 0.908 5.31-1.389 6.725-2.442 1.503-5.68 0.409-6.821-2.208M69.696 13.649c5.546 12.726 0.314 22.533-3.133 26.43-2.234 2.526-3.675 3.821-7.297 5.913-0.708 0.408-1.775 1.076-2.446 0.195-0.47-0.618-0.163-1.303 0.388-1.694 2.477-1.763 5.109-4.288 6.525-8.396 1.12-3.249 3.021-10.372-2.246-17.932-1.532-2.198-0.908-5.309 1.388-6.724 2.443-1.503 5.681-0.409 6.821 2.208"
                                                                            fill="#5d5dff"
                                                                            data-fill-palette-color="accent"></path>
                                                                    <path
                                                                            d="M8.671 51.118c8.248-11.166 19.357-11.539 24.456-10.502 3.305 0.672 5.147 1.272 8.769 3.363 0.708 0.408 1.82 0.999 1.392 2.021-0.299 0.716-1.045 0.793-1.66 0.512-2.765-1.263-6.269-2.28-10.533-1.453-3.374 0.654-10.494 2.57-14.406 10.911-1.138 2.425-4.144 3.44-6.518 2.159-2.525-1.363-3.195-4.715-1.5-7.011M91.329 48.882C83.081 60.047 71.971 60.42 66.874 59.383c-3.305-0.672-5.147-1.272-8.769-3.363-0.708-0.408-1.82-0.999-1.393-2.021 0.3-0.716 1.046-0.793 1.66-0.512 2.766 1.264 6.269 2.28 10.534 1.453 3.373-0.654 10.493-2.569 14.406-10.91 1.138-2.426 4.144-3.441 6.517-2.16 2.525 1.363 3.196 4.715 1.5 7.012M51.119 91.329C39.953 83.081 39.58 71.972 40.617 66.874c0.673-3.305 1.272-5.147 3.364-8.77 0.409-0.708 1-1.819 2.02-1.392 0.716 0.3 0.793 1.045 0.512 1.66-1.263 2.765-2.28 6.269-1.453 10.533 0.654 3.374 2.57 10.493 10.911 14.406 2.425 1.138 3.44 4.144 2.159 6.518-1.364 2.525-4.715 3.196-7.011 1.5M48.882 8.672c11.166 8.247 11.538 19.356 10.501 24.455-0.672 3.305-1.271 5.147-3.362 8.77-0.409 0.707-1 1.819-2.021 1.392-0.716-0.3-0.792-1.046-0.511-1.661 1.263-2.765 2.28-6.268 1.453-10.533-0.655-3.373-2.57-10.492-10.911-14.406-2.426-1.137-3.44-4.144-2.159-6.517 1.362-2.526 4.713-3.196 7.01-1.5"
                                                                            fill="#5d5dff"
                                                                            data-fill-palette-color="accent"></path>
                                                                </svg>
                                                            </g>
                                                        </svg>
                                                    </g>
                                                </svg>
                                            </g>
                                        </svg>
                                    </g>
                                </svg>
                            </g>
                        </svg>
                    </g>
                    <defs></defs>
                </svg>
                <rect width="95.481" height="95.48066331277049" fill="none" stroke="none" visibility="hidden"></rect>
            </g>
        </svg>
    </g>
</svg>

